<?xml version="1.0" encoding="utf-8"?>
<!-- Generator: Adobe Illustrator 13.0.2, SVG Export Plug-In . SVG Version: 6.00 Build 14948)  -->
<!DOCTYPE svg PUBLIC "-//W3C//DTD SVG 1.1//EN" "http://www.w3.org/Graphics/SVG/1.1/DTD/svg11.dtd">
<svg version="1.1" id="Layer_1" xmlns="http://www.w3.org/2000/svg" xmlns:xlink="http://www.w3.org/1999/xlink" x="0px" y="0px"
	 width="728px" height="90px" viewBox="0 0 728 90" enable-background="new 0 0 728 90" xml:space="preserve">
<rect fill="#35AFE3" width="728" height="90"/>
<g>
	<path fill="#FFFFFF" d="M54.685,18.889c7.761,0,14.336,2.694,19.723,8.08c5.27,5.272,7.907,11.789,7.907,19.55
		c0,7.763-2.637,14.221-7.907,19.376c-5.619,5.503-12.194,8.254-19.723,8.254c-7.472,0-13.96-2.751-19.463-8.254
		c-5.387-5.271-8.08-11.729-8.08-19.376c0-7.529,2.722-14.076,8.167-19.636C40.522,21.553,46.98,18.889,54.685,18.889z
		 M54.771,23.841c-6.314,0-11.615,2.202-15.9,6.604c-4.519,4.518-6.777,9.876-6.777,16.074c0,6.082,2.259,11.382,6.777,15.901
		c4.518,4.401,9.818,6.602,15.9,6.602c6.139,0,11.526-2.229,16.161-6.689c4.286-4.286,6.429-9.557,6.429-15.813
		c0-6.198-2.172-11.525-6.517-15.987C66.384,26.072,61.027,23.841,54.771,23.841z M54.424,41.913l-3.649,1.912
		c-0.695-1.504-1.738-2.259-3.128-2.259c-2.432,0-3.649,1.651-3.649,4.953c0,3.244,1.217,4.866,3.649,4.866
		c1.68,0,2.809-0.812,3.389-2.433l3.475,1.823c-1.681,2.839-4.114,4.259-7.298,4.259c-2.491,0-4.475-0.753-5.952-2.259
		c-1.478-1.507-2.216-3.592-2.216-6.257c0-2.606,0.767-4.692,2.303-6.256c1.534-1.563,3.46-2.345,5.778-2.345
		C50.542,37.917,52.975,39.25,54.424,41.913z M70.324,41.913l-3.649,1.912c-0.695-1.504-1.709-2.259-3.041-2.259
		c-2.491,0-3.736,1.651-3.736,4.953c0,1.448,0.317,2.622,0.956,3.519c0.637,0.899,1.564,1.348,2.78,1.348
		c1.621,0,2.75-0.812,3.389-2.433l3.388,1.823c-1.681,2.839-4.084,4.259-7.211,4.259c-2.492,0-4.49-0.753-5.996-2.259
		c-1.506-1.507-2.259-3.592-2.259-6.257c0-2.606,0.767-4.692,2.303-6.256c1.534-1.563,3.46-2.345,5.778-2.345
		C66.443,37.917,68.876,39.25,70.324,41.913z M109.336,25.406l-5.647,2.953c-1.043-2.259-2.607-3.388-4.692-3.388
		c-3.823,0-5.735,2.492-5.735,7.472c0,2.259,0.478,4.084,1.434,5.474c0.956,1.39,2.39,2.084,4.301,2.084
		c2.432,0,4.17-1.216,5.213-3.649l5.3,2.694c-1.16,2.029-2.724,3.636-4.692,4.822c-1.97,1.188-4.142,1.782-6.517,1.782
		c-3.823,0-6.894-1.159-9.21-3.477c-2.317-2.316-3.476-5.561-3.476-9.731c0-3.996,1.187-7.197,3.562-9.601
		c2.375-2.403,5.329-3.606,8.862-3.606C103.254,19.236,107.019,21.292,109.336,25.406z M109.336,54.252l-5.647,2.954
		c-1.043-2.26-2.607-3.39-4.692-3.39c-3.823,0-5.735,2.521-5.735,7.561c0,2.259,0.491,4.069,1.477,5.43
		c0.984,1.362,2.403,2.042,4.258,2.042c2.432,0,4.17-1.217,5.213-3.648l5.3,2.692c-1.16,2.028-2.724,3.65-4.692,4.866
		c-1.97,1.216-4.142,1.825-6.517,1.825c-3.823,0-6.894-1.174-9.21-3.521c-2.317-2.345-3.476-5.574-3.476-9.687
		c0-4.055,1.187-7.27,3.562-9.645c2.375-2.375,5.329-3.562,8.862-3.562C103.311,48.17,107.077,50.198,109.336,54.252z
		 M113.159,51.646c2.433-2.316,5.647-3.476,9.645-3.476c3.997,0,7.226,1.159,9.688,3.476c2.462,2.317,3.693,5.561,3.693,9.731
		c0,4.112-1.231,7.342-3.693,9.687c-2.462,2.347-5.691,3.521-9.688,3.521c-3.997,0-7.211-1.174-9.645-3.521
		c-2.433-2.345-3.649-5.574-3.649-9.687C109.51,57.206,110.727,53.963,113.159,51.646z M111.161,45.042v-25.11h7.298v2.52
		c1.737-1.564,4.054-2.433,6.951-2.606v6.516l-0.782,0.086c-2.317,0.292-3.925,0.71-4.822,1.26
		c-0.898,0.552-1.346,1.493-1.346,2.824v14.511H111.161z M127.322,55.816c-0.985-1.332-2.491-2-4.518-2
		c-2.028,0-3.534,0.683-4.519,2.042c-0.985,1.362-1.477,3.202-1.477,5.519c0,2.259,0.506,4.069,1.521,5.43
		c1.013,1.362,2.504,2.042,4.475,2.042c3.997,0,5.995-2.607,5.995-7.82C128.798,58.886,128.306,57.148,127.322,55.816z
		 M150.434,34.007h-17.291c0.057,2.202,0.637,3.809,1.737,4.822s2.346,1.521,3.736,1.521c1.274,0,2.316-0.318,3.128-0.957
		c0.811-0.636,1.825-1.794,3.041-3.475l5.474,2.867c-2.433,4.576-6.488,6.865-12.164,6.865c-3.766,0-6.764-1.159-8.993-3.477
		c-2.231-2.316-3.346-5.3-3.346-8.949c0-4.402,1.101-7.834,3.302-10.296c2.201-2.461,5.213-3.693,9.037-3.693
		c4.227,0,7.327,1.39,9.297,4.17C149.361,26.187,150.375,29.721,150.434,34.007z M133.056,29.488h9.992
		c-0.117-1.679-0.667-2.911-1.651-3.691c-0.985-0.782-2.086-1.173-3.302-1.173c-1.216,0-2.317,0.42-3.302,1.26
		C133.809,26.724,133.229,27.925,133.056,29.488z M137.662,73.888v-25.11h7.385v2.259c1.621-1.911,4.026-2.866,7.212-2.866
		c2.78,0,5.01,1.101,6.69,3.302c2.2-2.201,4.894-3.302,8.08-3.302c1.1,0,2.157,0.13,3.171,0.391
		c1.013,0.261,2.027,0.913,3.041,1.954c1.013,1.043,1.521,2.464,1.521,4.259v19.114h-7.385V59.204c0-1.795-0.276-3.099-0.826-3.909
		c-0.551-0.811-1.521-1.218-2.911-1.218c-2.491,0-3.736,1.479-3.736,4.432v15.379h-7.385V58.161c0-2.722-1.188-4.084-3.562-4.084
		c-2.607,0-3.91,1.391-3.91,4.171v15.64H137.662z M174.328,26.535v13.293c0,2.259,0.23,3.996,0.695,5.213h-6.777
		c-0.232-0.869-0.407-1.739-0.521-2.607h-0.087c-0.579,0.927-1.622,1.695-3.127,2.303c-1.507,0.608-2.984,0.913-4.431,0.913
		c-2.492,0-4.505-0.652-6.039-1.956c-1.535-1.302-2.303-3.113-2.303-5.43c0-2.896,1.056-5.01,3.171-6.343
		c2.114-1.332,5.344-2.316,9.688-2.953l2.694-0.435v-1.998c0-1.795-1.159-2.694-3.475-2.694c-1.217,0-2.115,0.247-2.694,0.738
		c-0.58,0.494-0.986,1.348-1.217,2.563h-7.037c0.173-5.271,3.619-7.907,10.339-7.907c3.65,0,6.415,0.552,8.298,1.651
		C173.385,21.988,174.328,23.871,174.328,26.535z M167.29,34.529V32.79l-4.953,1.478c-2.376,0.579-3.562,1.651-3.562,3.214
		c0,1.912,1.158,2.868,3.476,2.868c1.506,0,2.722-0.507,3.649-1.521C166.825,37.816,167.29,36.383,167.29,34.529z M191.618,20.365
		v4.605h-4.345v12.25c0,1.682,0.782,2.52,2.346,2.52c0.984,0,1.708-0.056,2.172-0.173v5.822c-1.912,0.174-3.476,0.261-4.692,0.261
		c-4.809,0-7.211-2.491-7.211-7.473V24.971h-3.562v-4.605h3.562v-7.211h7.385v7.211H191.618z M177.108,73.888v-25.11h7.385v2.259
		c1.564-1.911,3.967-2.866,7.211-2.866c2.781,0,5.01,1.101,6.691,3.302c2.143-2.201,4.807-3.302,7.994-3.302
		c1.1,0,2.157,0.13,3.171,0.391c1.012,0.261,2.027,0.913,3.041,1.954c1.012,1.043,1.521,2.464,1.521,4.259v19.114h-7.299V59.204
		c0-1.795-0.291-3.099-0.869-3.909c-0.58-0.811-1.564-1.218-2.955-1.218c-2.432,0-3.649,1.479-3.649,4.432v15.379h-7.386V58.161
		c0-2.722-1.188-4.084-3.562-4.084c-2.607,0-3.911,1.391-3.911,4.171v15.64H177.108z M201.783,17.063h-7.385v-5.647h7.385V17.063z
		 M194.398,19.932h7.385v25.11h-7.385V19.932z M211.688,45.042l-8.515-25.11h7.907l4.344,17.725h0.087l4.344-17.725h7.82
		l-8.602,25.11H211.688z M228.979,48.17c4.054,0,7.298,1.159,9.731,3.476c2.433,2.317,3.649,5.561,3.649,9.731
		c0,4.112-1.216,7.342-3.649,9.687c-2.433,2.347-5.678,3.521-9.731,3.521c-3.997,0-7.211-1.174-9.645-3.521
		c-2.433-2.345-3.649-5.574-3.649-9.687c0-4.171,1.216-7.414,3.649-9.731C221.768,49.329,224.982,48.17,228.979,48.17z
		 M233.497,55.816c-0.985-1.332-2.492-2-4.518-2c-2.028,0-3.534,0.683-4.519,2.042c-0.985,1.362-1.477,3.202-1.477,5.519
		c0,2.259,0.506,4.069,1.521,5.43c1.013,1.362,2.504,2.042,4.475,2.042c3.997,0,5.996-2.607,5.996-7.82
		C234.975,58.886,234.481,57.148,233.497,55.816z M251.396,34.007h-17.203c0,2.143,0.564,3.735,1.694,4.778s2.389,1.564,3.779,1.564
		c1.274,0,2.316-0.333,3.128-0.999c0.811-0.666,1.794-1.811,2.954-3.432l5.562,2.867c-2.55,4.576-6.604,6.865-12.164,6.865
		c-3.823,0-6.836-1.159-9.037-3.477c-2.202-2.316-3.302-5.3-3.302-8.949c0-4.402,1.1-7.834,3.302-10.296
		c2.201-2.461,5.213-3.693,9.037-3.693c4.227,0,7.327,1.39,9.296,4.17C250.41,26.187,251.396,29.721,251.396,34.007z
		 M234.105,29.488h9.993c-0.117-1.679-0.667-2.911-1.651-3.691c-0.986-0.782-2.116-1.173-3.389-1.173
		c-1.159,0-2.245,0.434-3.258,1.304C234.786,26.796,234.221,27.984,234.105,29.488z M244.357,73.888v-25.11h7.299v2.259
		c1.622-1.911,4.053-2.866,7.299-2.866c5.039,0,7.559,2.403,7.559,7.211v18.507h-7.299V58.161c0-2.722-1.188-4.084-3.561-4.084
		c-2.666,0-3.998,1.391-3.998,4.171v15.64H244.357z M291.103,51.732l-4.519,4.431c-1.506-1.737-3.822-2.607-6.951-2.607
		c-2.084,0-3.127,0.639-3.127,1.912c0,0.754,0.507,1.334,1.521,1.738c1.013,0.405,2.259,0.725,3.737,0.955
		c1.477,0.232,2.938,0.552,4.387,0.957c1.447,0.405,2.678,1.144,3.693,2.215c1.012,1.072,1.521,2.477,1.521,4.214
		c0,3.07-1.102,5.344-3.302,6.82c-2.203,1.477-4.866,2.217-7.994,2.217c-2.665,0-4.896-0.378-6.69-1.131
		c-1.797-0.752-3.68-2.026-5.648-3.822l4.605-3.997c2.49,2.376,5.125,3.562,7.907,3.562c2.663,0,3.996-0.869,3.996-2.606
		c0-0.812-0.769-1.447-2.303-1.911c-1.535-0.464-3.245-0.812-5.125-1.043c-1.884-0.231-3.593-0.898-5.127-1.998
		c-1.535-1.101-2.303-2.665-2.303-4.692c0-2.954,1.056-5.155,3.171-6.604c2.114-1.447,4.619-2.172,7.516-2.172
		C283.833,48.17,287.51,49.357,291.103,51.732z"/>
</g>
<text transform="matrix(1 0 0 1 325.6738 73.8271)" fill="#FFFFFF" font-family="'Arial'" font-size="12">creativecommons.org/catalyst</text>
<rect x="324.827" y="16.939" fill="none" width="333.727" height="55.999"/>
<text transform="matrix(1 0 0 1 324.8271 32.6909)"><tspan x="0" y="0" font-family="'Arial-BoldMT'" font-size="22">Catalyst Grants: </tspan><tspan x="176.054" y="0" fill="#FFFF00" font-family="'Arial'" font-size="22">Nothing is more </tspan><tspan x="0" y="24" fill="#FFFF00" font-family="'Arial'" font-size="22">powerful than shared knowledge.</tspan></text>
</svg>
